<?xml version="1.0" encoding="utf-8"?>
<!-- Generator: Adobe Illustrator 22.0.1, SVG Export Plug-In . SVG Version: 6.00 Build 0)  -->
<svg version="1.1" id="レイヤー_1" xmlns="http://www.w3.org/2000/svg" xmlns:xlink="http://www.w3.org/1999/xlink" x="0px"
	 y="0px" width="841.89px" height="595.276px" viewBox="0 0 841.89 595.276" style="enable-background:new 0 0 841.89 595.276;"
	 xml:space="preserve">
<style type="text/css">
	.st0{fill:#FFFFFF;}
</style>
<g>
	<g>
		<path class="st0" d="M327.047,217.369l8.485-0.025l6.475,35.174c0.793,4.304,1.515,8.61,2.17,12.918
			c0.648,4.29,1.241,8.782,1.782,13.482c0.062-0.632,0.112-1.131,0.14-1.491c0.04-0.355,0.071-0.605,0.102-0.757l1.38-9.965
			l1.238-9.386l1.094-6.19l5.765-33.846l8.571-0.029l6.769,79.36l-9.483,2.274l-1.668-27.436c-0.065-1.406-0.114-2.621-0.167-3.638
			c-0.041-1.023-0.069-1.868-0.069-2.54l-0.428-10.959l-0.238-10.095c0-0.068-0.006-0.219-0.024-0.448
			c-0.022-0.225-0.039-0.536-0.075-0.928l-0.233,1.668c-0.258,1.983-0.484,3.708-0.696,5.189c-0.203,1.477-0.389,2.727-0.548,3.741
			l-1.233,7.7l-0.479,2.918l-6.197,37.717l-6.667,1.602l-5.809-31.558c-0.793-4.236-1.502-8.566-2.121-12.989
			c-0.62-4.428-1.185-9.104-1.695-14.021l-2.854,61.562L321,308.611L327.047,217.369z"/>
		<path class="st0" d="M379.215,217.208l25.453-0.081v8.117l-15.549,0.496v23.779l14.569-1.53v8.165l-14.569,1.927v25.627
			l16.432-3.504v8.121l-26.336,6.316V217.208z"/>
		<path class="st0" d="M410.053,217.047l31.102-0.103v7.409l-10.853,0.411v57.708l-9.719,2.331v-59.741l-10.53,0.29V217.047z"/>
		<path class="st0" d="M446.519,217.004l13.049-0.045c5.401-0.015,9.418,0.953,12.053,2.879c3.329,2.433,4.997,6.154,4.997,11.227
			c0,3.895-0.88,7.11-2.639,9.662c-1.77,2.593-4.282,4.389-7.552,5.376l13.524,24.371l-10.048,2.41l-13.482-25.724v28.96
			l-9.902,2.371V217.004z M456.421,243.173c3.846-0.413,6.56-1.4,8.15-2.956c1.586-1.527,2.379-3.918,2.379-7.17
			c0-1.758-0.168-3.253-0.497-4.487c-0.337-1.232-0.855-2.229-1.575-2.99c-0.711-0.766-1.636-1.317-2.76-1.651
			c-1.129-0.342-2.468-0.491-4.027-0.445l-1.67,0.053V243.173z"/>
		<path class="st0" d="M521,239.781c0,7.743-1.445,13.533-4.336,17.44c-2.889,4.011-7.734,6.878-14.524,8.522
			c-7.151,1.741-12.181,0.917-15.103-2.548c-2.889-3.488-4.337-10.553-4.337-21.109c0-9.413,1.433-16.137,4.29-20.099
			c2.889-3.877,7.779-5.781,14.668-5.781c6.166,0,10.736,1.319,13.721,3.895c1.968,1.676,3.399,4.056,4.288,7.151
			C520.555,230.079,521,234.248,521,239.781z M510.616,241.761c0-8.015-0.572-13.301-1.717-15.874
			c-1.143-2.621-3.475-3.893-7.004-3.793c-3.521,0.101-5.874,1.47-7.047,4.128c-1.146,2.704-1.718,8.074-1.718,16.094
			c0,7.385,0.604,12.395,1.812,15.004c1.24,2.425,3.557,3.259,6.953,2.531c3.335-0.71,5.62-2.377,6.866-4.978
			C509.997,252.322,510.616,247.958,510.616,241.761z"/>
	</g>
	<g>
		<path class="st0" d="M431.981,313.875c-0.339-1.519-0.861-2.727-1.572-3.592c-0.716-0.862-1.643-1.418-2.765-1.663
			c-1.125-0.254-2.468-0.224-4.025,0.078l-1.666,0.32v23.334c3.839-0.466,6.557-1.66,8.146-3.604
			c1.587-1.95,2.378-5.017,2.378-9.179C432.475,317.319,432.307,315.42,431.981,313.875z"/>
		<path class="st0" d="M383.138,316.402c-3.534,0.688-5.883,2.723-7.055,6.1c-1.14,3.37-1.712,9.815-1.712,19.361
			c0,8.785,0.598,14.836,1.803,18.193c1.244,3.194,3.56,4.756,6.965,4.666c3.323-0.087,5.612-1.731,6.853-4.939
			c1.238-3.217,1.855-9.099,1.855-17.637c0-11.044-0.571-18.273-1.712-21.676C388.985,317.071,386.653,315.719,383.138,316.402z"/>
		<path class="st0" d="M321.751,315.903v64.405h199.053V269.73L321.751,315.903z M357.793,323.501l-16.575,3.192v13.984
			l14.951-1.868v7.815l-14.951,1.5v23.565l-9.911,0.023v-50.798l26.486-5.747V323.501z M397.893,365.087
			c-2.888,4.859-7.725,7.257-14.522,7.257c-7.148,0-12.178-2.379-15.104-7.035c-2.888-4.473-4.334-12.432-4.334-23.961
			c0-10.281,1.43-17.814,4.288-22.661c2.891-4.972,7.783-8.253,14.67-9.768c6.163-1.357,10.736-0.523,13.721,2.567
			c1.968,2.108,3.394,5.41,4.284,9.907c0.892,4.176,1.337,10.437,1.337,18.758C402.234,351.801,400.784,360.144,397.893,365.087z
			 M435.429,371.442l-13.477-34.357v34.391l-9.905,0.028v-68.11l13.045-2.832c5.4-1.171,9.42-0.767,12.058,1.245
			c3.326,2.673,4.998,7.517,4.998,14.469c0,5.344-0.879,9.751-2.636,13.188c-1.772,3.42-4.288,5.674-7.559,6.786l13.524,35.165
			L435.429,371.442z M479.541,298.485l-11.096,2.125v70.744l-9.716,0.031v-68.911l-11.429,2.195v-8.926l32.241-6.995V298.485z
			 M511.362,292.032l-16.438,3.162v27.198l14.576-1.818v10.149l-14.576,1.458v29.31l16.438-0.445v10.196l-26.343,0.066v-83.746
			l26.343-5.725V292.032z"/>
	</g>
</g>
</svg>
